PathFileType	4	(X/Y/Z)	./resultDataOpenSim/trcMotMarkerGrf/sub06/qtm-02-02.trc
DataRate	CameraRate	NumFrames	NumMarkers	Units	OrigDataRate	OrigDataStartFrame	OrigNumFrames
250.000000	250.000000	8	24	m	250.000000	302	483
Frame#	Time	L.Toe.Tip			R.Toe.Tip			L.Ankle.Lat			R.Ankle.Lat			L.Ankle.Med			R.Ankle.Med			L.Heel			R.Heel			L.Knee.Lat			R.Knee.Lat			L.Knee.Med			R.Knee.Med			L.Thigh.Upper			R.Thigh.Upper			L.ASIS			R.ASIS			V.Sacral			L.Acromium			R.Acromium			C7			L.Elbow			R.Elbow			L.Wrist.Lat			R.Wrist.Lat
		X1	Y1	Z1	X2	Y2	Z2	X3	Y3	Z3	X4	Y4	Z4	X5	Y5	Z5	X6	Y6	Z6	X7	Y7	Z7	X8	Y8	Z8	X9	Y9	Z9	X10	Y10	Z10	X11	Y11	Z11	X12	Y12	Z12	X13	Y13	Z13	X14	Y14	Z14	X15	Y15	Z15	X16	Y16	Z16	X17	Y17	Z17	X18	Y18	Z18	X19	Y19	Z19	X20	Y20	Z20	X21	Y21	Z21	X22	Y22	Z22	X23	Y23	Z23	X24	Y24	Z24

302	1.204	0.24957013	0.077967085	-0.076776416	0.89588948	0.035556452	0.091883892	0.26576666	0.20653577	-0.11053185	0.75911847	0.059557021	0.11557591	0.28732128	0.21241565	-0.02860847	0.77783661	0.081592268	0.028786127	0.22574894	0.26835402	-0.062107556	0.7039358	0.038482686	0.057081463	0.60783567	0.3728677	-0.13685062	0.81529689	0.44246456	0.14881449	0.60969316	0.36030261	-0.016310745	0.78119536	0.43013769	0.02592569	0.60552545	0.76366201	-0.12837981	0.67630382	0.79172146	0.20895948	0.69252507	0.81538732	-0.10024632	0.74539311	0.84010817	0.13589436	0.53609752	0.90197506	0.055537261	0.66893021	1.3122592	-0.13613163	0.66506016	1.2864906	0.22490377	0.59191	1.3423896	0.044053981	0.68652804	0.98716478	-0.21367253	0.53661605	0.99836792	0.26999706	0.90334635	0.88157056	-0.17451028	0.61153982	0.78020289	0.34604316
303	1.208	0.26293978	0.081481507	-0.076227709	0.89582322	0.035542685	0.092029415	0.27856242	0.2099644	-0.11031326	0.75899983	0.059582321	0.11565119	0.29969275	0.21619075	-0.028249998	0.77790918	0.081754979	0.02898704	0.23834001	0.27181341	-0.06215606	0.70395787	0.038560911	0.057052724	0.62113578	0.3744444	-0.13693492	0.81683005	0.44209043	0.14961998	0.62308943	0.36221904	-0.016296152	0.78267158	0.43006212	0.026804552	0.61235185	0.76595763	-0.12779568	0.68134515	0.79278308	0.20941432	0.69894125	0.81774974	-0.099945053	0.75111741	0.84158359	0.13689626	0.54231803	0.90392442	0.055682964	0.67440598	1.3143283	-0.13588464	0.67175506	1.2884867	0.22512309	0.59814721	1.3443197	0.044628182	0.69187229	0.98928013	-0.21340724	0.54509943	0.99958468	0.27183856	0.90599687	0.88066662	-0.17500848	0.62430059	0.78196423	0.34602439
304	1.212	0.27656007	0.084771463	-0.075648297	0.89575816	0.035528869	0.092161779	0.29153547	0.21319922	-0.11011205	0.75888778	0.059582642	0.11574509	0.31226904	0.21983674	-0.02802045	0.77796723	0.081910955	0.029167764	0.25092374	0.27501795	-0.062217486	0.70397295	0.038649923	0.057031973	0.63438732	0.37616632	-0.13699379	0.81838186	0.44180899	0.15037144	0.63679235	0.3641783	-0.016411483	0.78406154	0.43019004	0.027616932	0.61933376	0.76824196	-0.12746489	0.68613319	0.79379461	0.20986909	0.70575648	0.82017427	-0.099646805	0.75684634	0.84306443	0.13796355	0.54846839	0.90589559	0.05603093	0.67983553	1.3164377	-0.13567412	0.67838461	1.2905261	0.22532665	0.60434568	1.3462713	0.045178512	0.69641365	0.99154473	-0.21288929	0.55364159	1.0006751	0.27342425	0.90849682	0.87981623	-0.17554924	0.63711227	0.7838574	0.34594938
305	1.216	0.29039629	0.087837341	-0.075055147	0.89569669	0.035514665	0.092279099	0.30466142	0.21621813	-0.10991929	0.75881097	0.059543977	0.11584399	0.32508152	0.22326525	-0.027855146	0.77800362	0.08205751	0.02932497	0.2634826	0.27799357	-0.062270938	0.70396752	0.038755572	0.057036218	0.64759617	0.37803359	-0.13702795	0.81996439	0.44164323	0.15105817	0.65039472	0.36617873	-0.016514074	0.78551146	0.43047526	0.028305917	0.62639509	0.77051937	-0.12728344	0.69086291	0.79482382	0.21041664	0.71263269	0.82256151	-0.099290889	0.76256233	0.84454467	0.13908041	0.55446716	0.90790592	0.056547978	0.68524995	1.3185813	-0.13550416	0.68495834	1.2925992	0.22551803	0.61051747	1.3482294	0.045696615	0.7002527	0.99392129	-0.21216515	0.562215	1.0016516	0.2747461	0.91085555	0.8790195	-0.17614062	0.64997909	0.78589889	0.3458226
306	1.22	0.30442887	0.090682134	-0.074463235	0.89563945	0.035502757	0.092382012	0.31791812	0.21902768	-0.10972916	0.75877087	0.059477918	0.11594145	0.3380826	0.22645604	-0.027709189	0.77801578	0.082195347	0.029464389	0.27604802	0.28075275	-0.062332927	0.703943	0.038876713	0.057060438	0.66078193	0.38005997	-0.1370431	0.82155201	0.44159343	0.15166028	0.66362314	0.36823272	-0.016501125	0.78705706	0.43086501	0.028860335	0.63344345	0.77281828	-0.12707944	0.69569323	0.79593547	0.21113223	0.71935566	0.82485117	-0.098969937	0.76822482	0.84601518	0.14023295	0.56022007	0.90996139	0.057159797	0.69065425	1.3207501	-0.13535903	0.69148459	1.2946991	0.2256992	0.61666549	1.3501867	0.046186865	0.70353653	0.99637168	-0.21129834	0.5707564	1.0025831	0.27591738	0.91308207	0.87827457	-0.17678366	0.66292033	0.78811503	0.34565731
307	1.224	0.31865141	0.093310672	-0.073882247	0.89558603	0.035496328	0.092472154	0.33128813	0.22163193	-0.10954144	0.7587525	0.059411851	0.11603435	0.35121583	0.22941753	-0.027576321	0.77800639	0.08233098	0.029598836	0.28869867	0.28327737	-0.062449854	0.70390637	0.039010478	0.057098465	0.67392771	0.38224094	-0.13702285	0.82311603	0.44162465	0.15216482	0.67654339	0.37034878	-0.016377483	0.78857791	0.4313283	0.029325415	0.64043496	0.77514636	-0.12675242	0.70059528	0.79711006	0.21196806	0.72589608	0.82704046	-0.098750501	0.77381282	0.84747283	0.14141663	0.56573283	0.91204523	0.05780769	0.69603456	1.3229319	-0.1352073	0.69796972	1.2968189	0.22587023	0.62278955	1.3521437	0.046661159	0.70640215	0.99885919	-0.21034861	0.57923855	1.0035312	0.27704252	0.91518396	0.87757783	-0.17747731	0.67590449	0.79049804	0.34544517
308	1.228	0.33306467	0.095725364	-0.073317587	0.89553631	0.035496327	0.09255185	0.34475648	0.224024	-0.10936238	0.75873803	0.059370821	0.11612211	0.36445588	0.23215024	-0.027463	0.77798423	0.082475852	0.029740082	0.30148531	0.2855314	-0.062619065	0.70386323	0.039157355	0.057150528	0.68700188	0.38456061	-0.13694745	0.82464403	0.44169385	0.15259223	0.68934751	0.37253891	-0.016183848	0.78991409	0.43185382	0.029761651	0.64738843	0.77749736	-0.12632559	0.70543715	0.79828394	0.21278948	0.73231176	0.82915692	-0.098603128	0.77933182	0.84892199	0.14262763	0.5711858	0.91412791	0.058432479	0.70139122	1.3251153	-0.13502973	0.70442019	1.2989514	0.22603007	0.62888949	1.3541044	0.04712491	0.70897102	1.0013463	-0.20937143	0.58768707	1.0045346	0.27817606	0.91716711	0.87692584	-0.17821992	0.6888455	0.79300253	0.34515335
309	1.232	0.34766357	0.097927288	-0.072779122	0.89549133	0.035501038	0.092623414	0.35830595	0.2262002	-0.1091974	0.75871478	0.05936699	0.11620846	0.3777968	0.23465177	-0.027370041	0.77796325	0.082641836	0.029892508	0.31437648	0.2874799	-0.062736179	0.70381939	0.039321344	0.057215896	0.69999308	0.38700922	-0.13681694	0.82612916	0.44177728	0.15298646	0.70216126	0.37481544	-0.015941694	0.79105146	0.43242498	0.030175326	0.65436075	0.77986359	-0.12589714	0.7100817	0.79940173	0.21344765	0.73869461	0.83124509	-0.098439959	0.7848039	0.85037193	0.143859	0.57681676	0.91617802	0.058966577	0.7067458	1.327292	-0.1348271	0.71084344	1.301091	0.22617833	0.63496677	1.356069	0.047572614	0.71136175	1.0037913	-0.20842462	0.59614849	1.005612	0.27933605	0.91903804	0.876318	-0.17900777	0.70171271	0.79560541	0.34477359
